<svg id="Capa_1" enable-background="new 0 0 510 510"  viewBox="0 0 510 510" xmlns="http://www.w3.org/2000/svg"><g id="XMLID_2170_"><path id="XMLID_2171_" d="m285 135h150v30h-150z"/><path id="XMLID_2230_" d="m225 45v330h-75v60h360v-390zm60 330h-30v-30h30zm0-60h-30v-30h30zm0-60h-30v-30h30zm60 120h-30v-30h30zm0-60h-30v-30h30zm0-60h-30v-30h30zm60 120h-30v-30h30zm0-60h-30v-30h30zm0-60h-30v-30h30zm60 120h-30v-30h30zm0-60h-30v-30h30zm0-60h-30v-30h30zm0-60h-210v-90h210z"/><path id="XMLID_2311_" d="m150 345h45v-345h-120v345h45v30h30z"/><path id="XMLID_2312_" d="m120 450c0 16.542-13.458 30-30 30s-30-13.458-30-30v-15h60v-60h-75v-330h-45v390h30v15c0 33.084 26.916 60 60 60s60-26.916 60-60v-15h-30z"/></g></svg>